<mxfile host="app.diagrams.net" modified="2022-09-24T16:54:44.410Z" agent="5.0 (Windows NT 10.0; Win64; x64) AppleWebKit/537.36 (KHTML, like Gecko) Chrome/104.0.5112.102 Safari/537.36 OPR/90.0.4480.117" etag="ynwFaI7-VYzVkO1NlTHI" version="20.3.6" type="github">
  <diagram id="0Gjv9bOSzwsi0dymjDfD" name="Страница 1">
    <mxGraphModel dx="3279" dy="2104" grid="1" gridSize="10" guides="1" tooltips="1" connect="1" arrows="1" fold="1" page="1" pageScale="1" pageWidth="827" pageHeight="1169" math="0" shadow="0">
      <root>
        <mxCell id="0" />
        <mxCell id="1" parent="0" />
        <mxCell id="qgoOsgjJbzTstBWQKqg9-13" style="edgeStyle=orthogonalEdgeStyle;rounded=0;orthogonalLoop=1;jettySize=auto;html=1;endArrow=open;endFill=0;endSize=10;startSize=10;" edge="1" parent="1" source="qgoOsgjJbzTstBWQKqg9-1" target="qgoOsgjJbzTstBWQKqg9-9">
          <mxGeometry relative="1" as="geometry" />
        </mxCell>
        <mxCell id="qgoOsgjJbzTstBWQKqg9-35" style="edgeStyle=orthogonalEdgeStyle;rounded=0;orthogonalLoop=1;jettySize=auto;html=1;startArrow=none;startFill=0;endArrow=open;endFill=0;startSize=10;endSize=10;dashed=1;" edge="1" parent="1" source="qgoOsgjJbzTstBWQKqg9-1" target="qgoOsgjJbzTstBWQKqg9-19">
          <mxGeometry relative="1" as="geometry" />
        </mxCell>
        <mxCell id="qgoOsgjJbzTstBWQKqg9-75" style="edgeStyle=orthogonalEdgeStyle;rounded=0;orthogonalLoop=1;jettySize=auto;html=1;dashed=1;startArrow=none;startFill=0;endArrow=open;endFill=0;startSize=10;endSize=10;" edge="1" parent="1" source="qgoOsgjJbzTstBWQKqg9-1" target="qgoOsgjJbzTstBWQKqg9-54">
          <mxGeometry relative="1" as="geometry">
            <Array as="points">
              <mxPoint x="380" y="607" />
              <mxPoint x="145" y="607" />
            </Array>
          </mxGeometry>
        </mxCell>
        <mxCell id="qgoOsgjJbzTstBWQKqg9-1" value="PostsController" style="swimlane;fontStyle=1;align=center;verticalAlign=top;childLayout=stackLayout;horizontal=1;startSize=26;horizontalStack=0;resizeParent=1;resizeParentMax=0;resizeLast=0;collapsible=1;marginBottom=0;" vertex="1" parent="1">
          <mxGeometry x="202.5" y="470" width="415" height="86" as="geometry" />
        </mxCell>
        <mxCell id="qgoOsgjJbzTstBWQKqg9-2" value="- postsService: IPostsService" style="text;strokeColor=none;fillColor=none;align=left;verticalAlign=top;spacingLeft=4;spacingRight=4;overflow=hidden;rotatable=0;points=[[0,0.5],[1,0.5]];portConstraint=eastwest;" vertex="1" parent="qgoOsgjJbzTstBWQKqg9-1">
          <mxGeometry y="26" width="415" height="26" as="geometry" />
        </mxCell>
        <mxCell id="qgoOsgjJbzTstBWQKqg9-3" value="" style="line;strokeWidth=1;fillColor=none;align=left;verticalAlign=middle;spacingTop=-1;spacingLeft=3;spacingRight=3;rotatable=0;labelPosition=right;points=[];portConstraint=eastwest;strokeColor=inherit;" vertex="1" parent="qgoOsgjJbzTstBWQKqg9-1">
          <mxGeometry y="52" width="415" height="8" as="geometry" />
        </mxCell>
        <mxCell id="qgoOsgjJbzTstBWQKqg9-52" value="+ getPosts(requestDto:GetPostsRequestDto): PostsWithPaginationDataDto" style="text;strokeColor=none;fillColor=none;align=left;verticalAlign=top;spacingLeft=4;spacingRight=4;overflow=hidden;rotatable=0;points=[[0,0.5],[1,0.5]];portConstraint=eastwest;" vertex="1" parent="qgoOsgjJbzTstBWQKqg9-1">
          <mxGeometry y="60" width="415" height="26" as="geometry" />
        </mxCell>
        <mxCell id="qgoOsgjJbzTstBWQKqg9-14" style="edgeStyle=orthogonalEdgeStyle;rounded=0;orthogonalLoop=1;jettySize=auto;html=1;endArrow=block;endFill=0;startSize=10;endSize=10;dashed=1;" edge="1" parent="1" source="qgoOsgjJbzTstBWQKqg9-5" target="qgoOsgjJbzTstBWQKqg9-9">
          <mxGeometry relative="1" as="geometry" />
        </mxCell>
        <mxCell id="qgoOsgjJbzTstBWQKqg9-50" style="edgeStyle=orthogonalEdgeStyle;rounded=0;orthogonalLoop=1;jettySize=auto;html=1;startArrow=none;startFill=0;endArrow=open;endFill=0;startSize=10;endSize=10;" edge="1" parent="1" source="qgoOsgjJbzTstBWQKqg9-5" target="qgoOsgjJbzTstBWQKqg9-46">
          <mxGeometry relative="1" as="geometry" />
        </mxCell>
        <mxCell id="qgoOsgjJbzTstBWQKqg9-5" value="PostsService" style="swimlane;fontStyle=1;align=center;verticalAlign=top;childLayout=stackLayout;horizontal=1;startSize=26;horizontalStack=0;resizeParent=1;resizeParentMax=0;resizeLast=0;collapsible=1;marginBottom=0;" vertex="1" parent="1">
          <mxGeometry x="215" y="120" width="390" height="86" as="geometry" />
        </mxCell>
        <mxCell id="qgoOsgjJbzTstBWQKqg9-6" value="- postsRepository: IPostsRepository" style="text;strokeColor=none;fillColor=none;align=left;verticalAlign=top;spacingLeft=4;spacingRight=4;overflow=hidden;rotatable=0;points=[[0,0.5],[1,0.5]];portConstraint=eastwest;" vertex="1" parent="qgoOsgjJbzTstBWQKqg9-5">
          <mxGeometry y="26" width="390" height="26" as="geometry" />
        </mxCell>
        <mxCell id="qgoOsgjJbzTstBWQKqg9-7" value="" style="line;strokeWidth=1;fillColor=none;align=left;verticalAlign=middle;spacingTop=-1;spacingLeft=3;spacingRight=3;rotatable=0;labelPosition=right;points=[];portConstraint=eastwest;strokeColor=inherit;" vertex="1" parent="qgoOsgjJbzTstBWQKqg9-5">
          <mxGeometry y="52" width="390" height="8" as="geometry" />
        </mxCell>
        <mxCell id="qgoOsgjJbzTstBWQKqg9-124" value="+ getPosts(requestDto:GetPostsRequestDto): PostsWithPaginationDataDto" style="text;strokeColor=none;fillColor=none;align=left;verticalAlign=top;spacingLeft=4;spacingRight=4;overflow=hidden;rotatable=0;points=[[0,0.5],[1,0.5]];portConstraint=eastwest;" vertex="1" parent="qgoOsgjJbzTstBWQKqg9-5">
          <mxGeometry y="60" width="390" height="26" as="geometry" />
        </mxCell>
        <mxCell id="qgoOsgjJbzTstBWQKqg9-9" value="&lt;&lt;interface&gt;&gt;&#xa;IPostsService" style="swimlane;fontStyle=1;align=center;verticalAlign=top;childLayout=stackLayout;horizontal=1;startSize=40;horizontalStack=0;resizeParent=1;resizeParentMax=0;resizeLast=0;collapsible=1;marginBottom=0;" vertex="1" parent="1">
          <mxGeometry x="206.25" y="300" width="407.5" height="74" as="geometry" />
        </mxCell>
        <mxCell id="qgoOsgjJbzTstBWQKqg9-11" value="" style="line;strokeWidth=1;fillColor=none;align=left;verticalAlign=middle;spacingTop=-1;spacingLeft=3;spacingRight=3;rotatable=0;labelPosition=right;points=[];portConstraint=eastwest;strokeColor=inherit;" vertex="1" parent="qgoOsgjJbzTstBWQKqg9-9">
          <mxGeometry y="40" width="407.5" height="8" as="geometry" />
        </mxCell>
        <mxCell id="qgoOsgjJbzTstBWQKqg9-76" value="+ getPosts(requestDto:GetPostsRequestDto): PostsWithPaginationDataDto" style="text;strokeColor=none;fillColor=none;align=left;verticalAlign=top;spacingLeft=4;spacingRight=4;overflow=hidden;rotatable=0;points=[[0,0.5],[1,0.5]];portConstraint=eastwest;" vertex="1" parent="qgoOsgjJbzTstBWQKqg9-9">
          <mxGeometry y="48" width="407.5" height="26" as="geometry" />
        </mxCell>
        <mxCell id="qgoOsgjJbzTstBWQKqg9-27" style="edgeStyle=orthogonalEdgeStyle;rounded=0;orthogonalLoop=1;jettySize=auto;html=1;endArrow=none;endFill=0;startSize=10;endSize=10;startArrow=diamond;startFill=0;" edge="1" parent="1" source="qgoOsgjJbzTstBWQKqg9-19" target="qgoOsgjJbzTstBWQKqg9-23">
          <mxGeometry relative="1" as="geometry" />
        </mxCell>
        <mxCell id="qgoOsgjJbzTstBWQKqg9-40" style="edgeStyle=orthogonalEdgeStyle;rounded=0;orthogonalLoop=1;jettySize=auto;html=1;startArrow=none;startFill=0;endArrow=open;endFill=0;startSize=10;endSize=10;" edge="1" parent="1" source="qgoOsgjJbzTstBWQKqg9-19" target="qgoOsgjJbzTstBWQKqg9-33">
          <mxGeometry relative="1" as="geometry">
            <Array as="points">
              <mxPoint x="540" y="730" />
              <mxPoint x="540" y="1015" />
            </Array>
          </mxGeometry>
        </mxCell>
        <mxCell id="qgoOsgjJbzTstBWQKqg9-19" value="PostsWithPaginationDataDto" style="swimlane;fontStyle=1;align=center;verticalAlign=top;childLayout=stackLayout;horizontal=1;startSize=26;horizontalStack=0;resizeParent=1;resizeParentMax=0;resizeLast=0;collapsible=1;marginBottom=0;" vertex="1" parent="1">
          <mxGeometry x="305" y="670" width="210" height="86" as="geometry" />
        </mxCell>
        <mxCell id="qgoOsgjJbzTstBWQKqg9-20" value="+ posts: PostsDto[]" style="text;strokeColor=none;fillColor=none;align=left;verticalAlign=top;spacingLeft=4;spacingRight=4;overflow=hidden;rotatable=0;points=[[0,0.5],[1,0.5]];portConstraint=eastwest;" vertex="1" parent="qgoOsgjJbzTstBWQKqg9-19">
          <mxGeometry y="26" width="210" height="26" as="geometry" />
        </mxCell>
        <mxCell id="qgoOsgjJbzTstBWQKqg9-36" value="+ paginationData: PostsPaginationDataDto" style="text;strokeColor=none;fillColor=none;align=left;verticalAlign=top;spacingLeft=4;spacingRight=4;overflow=hidden;rotatable=0;points=[[0,0.5],[1,0.5]];portConstraint=eastwest;" vertex="1" parent="qgoOsgjJbzTstBWQKqg9-19">
          <mxGeometry y="52" width="210" height="26" as="geometry" />
        </mxCell>
        <mxCell id="qgoOsgjJbzTstBWQKqg9-21" value="" style="line;strokeWidth=1;fillColor=none;align=left;verticalAlign=middle;spacingTop=-1;spacingLeft=3;spacingRight=3;rotatable=0;labelPosition=right;points=[];portConstraint=eastwest;strokeColor=inherit;" vertex="1" parent="qgoOsgjJbzTstBWQKqg9-19">
          <mxGeometry y="78" width="210" height="8" as="geometry" />
        </mxCell>
        <mxCell id="qgoOsgjJbzTstBWQKqg9-23" value="PostDto" style="swimlane;fontStyle=1;align=center;verticalAlign=top;childLayout=stackLayout;horizontal=1;startSize=26;horizontalStack=0;resizeParent=1;resizeParentMax=0;resizeLast=0;collapsible=1;marginBottom=0;" vertex="1" parent="1">
          <mxGeometry x="617.5" y="605" width="170" height="216" as="geometry" />
        </mxCell>
        <mxCell id="qgoOsgjJbzTstBWQKqg9-24" value="+ text: string" style="text;strokeColor=none;fillColor=none;align=left;verticalAlign=top;spacingLeft=4;spacingRight=4;overflow=hidden;rotatable=0;points=[[0,0.5],[1,0.5]];portConstraint=eastwest;" vertex="1" parent="qgoOsgjJbzTstBWQKqg9-23">
          <mxGeometry y="26" width="170" height="26" as="geometry" />
        </mxCell>
        <mxCell id="qgoOsgjJbzTstBWQKqg9-80" value="+ title: string" style="text;strokeColor=none;fillColor=none;align=left;verticalAlign=top;spacingLeft=4;spacingRight=4;overflow=hidden;rotatable=0;points=[[0,0.5],[1,0.5]];portConstraint=eastwest;" vertex="1" parent="qgoOsgjJbzTstBWQKqg9-23">
          <mxGeometry y="52" width="170" height="26" as="geometry" />
        </mxCell>
        <mxCell id="qgoOsgjJbzTstBWQKqg9-105" value="+ createdAt: Date" style="text;strokeColor=none;fillColor=none;align=left;verticalAlign=top;spacingLeft=4;spacingRight=4;overflow=hidden;rotatable=0;points=[[0,0.5],[1,0.5]];portConstraint=eastwest;" vertex="1" parent="qgoOsgjJbzTstBWQKqg9-23">
          <mxGeometry y="78" width="170" height="26" as="geometry" />
        </mxCell>
        <mxCell id="qgoOsgjJbzTstBWQKqg9-106" value="+ comments: CommentDto[]" style="text;strokeColor=none;fillColor=none;align=left;verticalAlign=top;spacingLeft=4;spacingRight=4;overflow=hidden;rotatable=0;points=[[0,0.5],[1,0.5]];portConstraint=eastwest;" vertex="1" parent="qgoOsgjJbzTstBWQKqg9-23">
          <mxGeometry y="104" width="170" height="26" as="geometry" />
        </mxCell>
        <mxCell id="qgoOsgjJbzTstBWQKqg9-93" value="+ numberOfLikes: number" style="text;strokeColor=none;fillColor=none;align=left;verticalAlign=top;spacingLeft=4;spacingRight=4;overflow=hidden;rotatable=0;points=[[0,0.5],[1,0.5]];portConstraint=eastwest;" vertex="1" parent="qgoOsgjJbzTstBWQKqg9-23">
          <mxGeometry y="130" width="170" height="26" as="geometry" />
        </mxCell>
        <mxCell id="qgoOsgjJbzTstBWQKqg9-109" value="+ numberOfDislikes: number" style="text;strokeColor=none;fillColor=none;align=left;verticalAlign=top;spacingLeft=4;spacingRight=4;overflow=hidden;rotatable=0;points=[[0,0.5],[1,0.5]];portConstraint=eastwest;" vertex="1" parent="qgoOsgjJbzTstBWQKqg9-23">
          <mxGeometry y="156" width="170" height="26" as="geometry" />
        </mxCell>
        <mxCell id="qgoOsgjJbzTstBWQKqg9-107" value="+ numberOfViews: number" style="text;strokeColor=none;fillColor=none;align=left;verticalAlign=top;spacingLeft=4;spacingRight=4;overflow=hidden;rotatable=0;points=[[0,0.5],[1,0.5]];portConstraint=eastwest;" vertex="1" parent="qgoOsgjJbzTstBWQKqg9-23">
          <mxGeometry y="182" width="170" height="26" as="geometry" />
        </mxCell>
        <mxCell id="qgoOsgjJbzTstBWQKqg9-25" value="" style="line;strokeWidth=1;fillColor=none;align=left;verticalAlign=middle;spacingTop=-1;spacingLeft=3;spacingRight=3;rotatable=0;labelPosition=right;points=[];portConstraint=eastwest;strokeColor=inherit;" vertex="1" parent="qgoOsgjJbzTstBWQKqg9-23">
          <mxGeometry y="208" width="170" height="8" as="geometry" />
        </mxCell>
        <mxCell id="qgoOsgjJbzTstBWQKqg9-28" value="PostsPaginationDataDto" style="swimlane;fontStyle=1;align=center;verticalAlign=top;childLayout=stackLayout;horizontal=1;startSize=26;horizontalStack=0;resizeParent=1;resizeParentMax=0;resizeLast=0;collapsible=1;marginBottom=0;" vertex="1" parent="1">
          <mxGeometry x="605" y="950" width="190" height="112" as="geometry" />
        </mxCell>
        <mxCell id="qgoOsgjJbzTstBWQKqg9-29" value="+ totalNumberOfPages: number" style="text;strokeColor=none;fillColor=none;align=left;verticalAlign=top;spacingLeft=4;spacingRight=4;overflow=hidden;rotatable=0;points=[[0,0.5],[1,0.5]];portConstraint=eastwest;" vertex="1" parent="qgoOsgjJbzTstBWQKqg9-28">
          <mxGeometry y="26" width="190" height="26" as="geometry" />
        </mxCell>
        <mxCell id="qgoOsgjJbzTstBWQKqg9-33" value="+ currentPage: number" style="text;strokeColor=none;fillColor=none;align=left;verticalAlign=top;spacingLeft=4;spacingRight=4;overflow=hidden;rotatable=0;points=[[0,0.5],[1,0.5]];portConstraint=eastwest;" vertex="1" parent="qgoOsgjJbzTstBWQKqg9-28">
          <mxGeometry y="52" width="190" height="26" as="geometry" />
        </mxCell>
        <mxCell id="qgoOsgjJbzTstBWQKqg9-34" value="+ nextSkip: number" style="text;strokeColor=none;fillColor=none;align=left;verticalAlign=top;spacingLeft=4;spacingRight=4;overflow=hidden;rotatable=0;points=[[0,0.5],[1,0.5]];portConstraint=eastwest;" vertex="1" parent="qgoOsgjJbzTstBWQKqg9-28">
          <mxGeometry y="78" width="190" height="26" as="geometry" />
        </mxCell>
        <mxCell id="qgoOsgjJbzTstBWQKqg9-30" value="" style="line;strokeWidth=1;fillColor=none;align=left;verticalAlign=middle;spacingTop=-1;spacingLeft=3;spacingRight=3;rotatable=0;labelPosition=right;points=[];portConstraint=eastwest;strokeColor=inherit;" vertex="1" parent="qgoOsgjJbzTstBWQKqg9-28">
          <mxGeometry y="104" width="190" height="8" as="geometry" />
        </mxCell>
        <mxCell id="qgoOsgjJbzTstBWQKqg9-41" style="edgeStyle=orthogonalEdgeStyle;rounded=0;orthogonalLoop=1;jettySize=auto;html=1;endArrow=block;endFill=0;startSize=10;endSize=10;dashed=1;" edge="1" source="qgoOsgjJbzTstBWQKqg9-42" target="qgoOsgjJbzTstBWQKqg9-46" parent="1">
          <mxGeometry relative="1" as="geometry" />
        </mxCell>
        <mxCell id="qgoOsgjJbzTstBWQKqg9-42" value="PostsRepository" style="swimlane;fontStyle=1;align=center;verticalAlign=top;childLayout=stackLayout;horizontal=1;startSize=26;horizontalStack=0;resizeParent=1;resizeParentMax=0;resizeLast=0;collapsible=1;marginBottom=0;" vertex="1" parent="1">
          <mxGeometry x="285" y="-266" width="250" height="112" as="geometry" />
        </mxCell>
        <mxCell id="qgoOsgjJbzTstBWQKqg9-43" value="+ dbConnection: SomeDbConnectionIDK" style="text;strokeColor=none;fillColor=none;align=left;verticalAlign=top;spacingLeft=4;spacingRight=4;overflow=hidden;rotatable=0;points=[[0,0.5],[1,0.5]];portConstraint=eastwest;" vertex="1" parent="qgoOsgjJbzTstBWQKqg9-42">
          <mxGeometry y="26" width="250" height="26" as="geometry" />
        </mxCell>
        <mxCell id="qgoOsgjJbzTstBWQKqg9-44" value="" style="line;strokeWidth=1;fillColor=none;align=left;verticalAlign=middle;spacingTop=-1;spacingLeft=3;spacingRight=3;rotatable=0;labelPosition=right;points=[];portConstraint=eastwest;strokeColor=inherit;" vertex="1" parent="qgoOsgjJbzTstBWQKqg9-42">
          <mxGeometry y="52" width="250" height="8" as="geometry" />
        </mxCell>
        <mxCell id="qgoOsgjJbzTstBWQKqg9-188" value="+ getNumberOfAllPosts(): number" style="text;strokeColor=none;fillColor=none;align=left;verticalAlign=top;spacingLeft=4;spacingRight=4;overflow=hidden;rotatable=0;points=[[0,0.5],[1,0.5]];portConstraint=eastwest;" vertex="1" parent="qgoOsgjJbzTstBWQKqg9-42">
          <mxGeometry y="60" width="250" height="26" as="geometry" />
        </mxCell>
        <mxCell id="qgoOsgjJbzTstBWQKqg9-187" value="+ getPosts(skip:number, limit: number, filtration: PostFiltrationDto): Post[]" style="text;strokeColor=none;fillColor=none;align=left;verticalAlign=top;spacingLeft=4;spacingRight=4;overflow=hidden;rotatable=0;points=[[0,0.5],[1,0.5]];portConstraint=eastwest;" vertex="1" parent="qgoOsgjJbzTstBWQKqg9-42">
          <mxGeometry y="86" width="250" height="26" as="geometry" />
        </mxCell>
        <mxCell id="qgoOsgjJbzTstBWQKqg9-141" style="edgeStyle=orthogonalEdgeStyle;rounded=0;orthogonalLoop=1;jettySize=auto;html=1;startArrow=none;startFill=0;endArrow=open;endFill=0;startSize=10;endSize=10;dashed=1;" edge="1" parent="1" source="qgoOsgjJbzTstBWQKqg9-46" target="qgoOsgjJbzTstBWQKqg9-88">
          <mxGeometry relative="1" as="geometry">
            <Array as="points">
              <mxPoint x="710" y="-10" />
              <mxPoint x="710" y="-249" />
            </Array>
          </mxGeometry>
        </mxCell>
        <mxCell id="qgoOsgjJbzTstBWQKqg9-46" value="&lt;&lt;interface&gt;&gt;&#xa;IPostsRepository" style="swimlane;fontStyle=1;align=center;verticalAlign=top;childLayout=stackLayout;horizontal=1;startSize=40;horizontalStack=0;resizeParent=1;resizeParentMax=0;resizeLast=0;collapsible=1;marginBottom=0;" vertex="1" parent="1">
          <mxGeometry x="186.25" y="-60" width="447.5" height="100" as="geometry" />
        </mxCell>
        <mxCell id="qgoOsgjJbzTstBWQKqg9-48" value="" style="line;strokeWidth=1;fillColor=none;align=left;verticalAlign=middle;spacingTop=-1;spacingLeft=3;spacingRight=3;rotatable=0;labelPosition=right;points=[];portConstraint=eastwest;strokeColor=inherit;" vertex="1" parent="qgoOsgjJbzTstBWQKqg9-46">
          <mxGeometry y="40" width="447.5" height="8" as="geometry" />
        </mxCell>
        <mxCell id="qgoOsgjJbzTstBWQKqg9-125" value="+ getPosts(skip:number, limit: number, filtration: PostFiltrationDto): Post[]" style="text;strokeColor=none;fillColor=none;align=left;verticalAlign=top;spacingLeft=4;spacingRight=4;overflow=hidden;rotatable=0;points=[[0,0.5],[1,0.5]];portConstraint=eastwest;" vertex="1" parent="qgoOsgjJbzTstBWQKqg9-46">
          <mxGeometry y="48" width="447.5" height="26" as="geometry" />
        </mxCell>
        <mxCell id="qgoOsgjJbzTstBWQKqg9-129" value="+ getNumberOfAllPosts(): number" style="text;strokeColor=none;fillColor=none;align=left;verticalAlign=top;spacingLeft=4;spacingRight=4;overflow=hidden;rotatable=0;points=[[0,0.5],[1,0.5]];portConstraint=eastwest;" vertex="1" parent="qgoOsgjJbzTstBWQKqg9-46">
          <mxGeometry y="74" width="447.5" height="26" as="geometry" />
        </mxCell>
        <mxCell id="qgoOsgjJbzTstBWQKqg9-71" style="edgeStyle=orthogonalEdgeStyle;rounded=0;orthogonalLoop=1;jettySize=auto;html=1;startArrow=diamond;startFill=0;endArrow=none;endFill=0;startSize=10;endSize=10;" edge="1" parent="1" source="qgoOsgjJbzTstBWQKqg9-54" target="qgoOsgjJbzTstBWQKqg9-66">
          <mxGeometry relative="1" as="geometry" />
        </mxCell>
        <mxCell id="qgoOsgjJbzTstBWQKqg9-54" value="GetPostsRequestDto" style="swimlane;fontStyle=1;align=center;verticalAlign=top;childLayout=stackLayout;horizontal=1;startSize=26;horizontalStack=0;resizeParent=1;resizeParentMax=0;resizeLast=0;collapsible=1;marginBottom=0;" vertex="1" parent="1">
          <mxGeometry x="40" y="657" width="210" height="112" as="geometry" />
        </mxCell>
        <mxCell id="qgoOsgjJbzTstBWQKqg9-55" value="+ skip: number" style="text;strokeColor=none;fillColor=none;align=left;verticalAlign=top;spacingLeft=4;spacingRight=4;overflow=hidden;rotatable=0;points=[[0,0.5],[1,0.5]];portConstraint=eastwest;" vertex="1" parent="qgoOsgjJbzTstBWQKqg9-54">
          <mxGeometry y="26" width="210" height="26" as="geometry" />
        </mxCell>
        <mxCell id="qgoOsgjJbzTstBWQKqg9-56" value="+ limit: number" style="text;strokeColor=none;fillColor=none;align=left;verticalAlign=top;spacingLeft=4;spacingRight=4;overflow=hidden;rotatable=0;points=[[0,0.5],[1,0.5]];portConstraint=eastwest;" vertex="1" parent="qgoOsgjJbzTstBWQKqg9-54">
          <mxGeometry y="52" width="210" height="26" as="geometry" />
        </mxCell>
        <mxCell id="qgoOsgjJbzTstBWQKqg9-59" value="+ filtration: PostsFiltrationDto[] " style="text;strokeColor=none;fillColor=none;align=left;verticalAlign=top;spacingLeft=4;spacingRight=4;overflow=hidden;rotatable=0;points=[[0,0.5],[1,0.5]];portConstraint=eastwest;" vertex="1" parent="qgoOsgjJbzTstBWQKqg9-54">
          <mxGeometry y="78" width="210" height="26" as="geometry" />
        </mxCell>
        <mxCell id="qgoOsgjJbzTstBWQKqg9-57" value="" style="line;strokeWidth=1;fillColor=none;align=left;verticalAlign=middle;spacingTop=-1;spacingLeft=3;spacingRight=3;rotatable=0;labelPosition=right;points=[];portConstraint=eastwest;strokeColor=inherit;" vertex="1" parent="qgoOsgjJbzTstBWQKqg9-54">
          <mxGeometry y="104" width="210" height="8" as="geometry" />
        </mxCell>
        <mxCell id="qgoOsgjJbzTstBWQKqg9-60" value="&lt;&lt;enumeration&gt;&gt;&#xa;PostsFiltrationType" style="swimlane;fontStyle=1;childLayout=stackLayout;horizontal=1;startSize=31;horizontalStack=0;resizeParent=1;resizeParentMax=0;resizeLast=0;collapsible=1;marginBottom=0;labelBackgroundColor=none;fontColor=#000000;" vertex="1" parent="1">
          <mxGeometry x="75" y="990" width="140" height="161" as="geometry" />
        </mxCell>
        <mxCell id="qgoOsgjJbzTstBWQKqg9-61" value="Date" style="text;align=left;verticalAlign=top;spacingLeft=4;spacingRight=4;overflow=hidden;rotatable=0;points=[[0,0.5],[1,0.5]];portConstraint=eastwest;labelBackgroundColor=none;fontColor=#000000;" vertex="1" parent="qgoOsgjJbzTstBWQKqg9-60">
          <mxGeometry y="31" width="140" height="26" as="geometry" />
        </mxCell>
        <mxCell id="qgoOsgjJbzTstBWQKqg9-62" value="Talking" style="text;align=left;verticalAlign=top;spacingLeft=4;spacingRight=4;overflow=hidden;rotatable=0;points=[[0,0.5],[1,0.5]];portConstraint=eastwest;labelBackgroundColor=none;fontColor=#000000;" vertex="1" parent="qgoOsgjJbzTstBWQKqg9-60">
          <mxGeometry y="57" width="140" height="26" as="geometry" />
        </mxCell>
        <mxCell id="qgoOsgjJbzTstBWQKqg9-63" value="Rating" style="text;align=left;verticalAlign=top;spacingLeft=4;spacingRight=4;overflow=hidden;rotatable=0;points=[[0,0.5],[1,0.5]];portConstraint=eastwest;labelBackgroundColor=none;fontColor=#000000;" vertex="1" parent="qgoOsgjJbzTstBWQKqg9-60">
          <mxGeometry y="83" width="140" height="26" as="geometry" />
        </mxCell>
        <mxCell id="qgoOsgjJbzTstBWQKqg9-64" value="Views" style="text;align=left;verticalAlign=top;spacingLeft=4;spacingRight=4;overflow=hidden;rotatable=0;points=[[0,0.5],[1,0.5]];portConstraint=eastwest;labelBackgroundColor=none;fontColor=#000000;" vertex="1" parent="qgoOsgjJbzTstBWQKqg9-60">
          <mxGeometry y="109" width="140" height="26" as="geometry" />
        </mxCell>
        <mxCell id="qgoOsgjJbzTstBWQKqg9-65" value="Popularity" style="text;align=left;verticalAlign=top;spacingLeft=4;spacingRight=4;overflow=hidden;rotatable=0;points=[[0,0.5],[1,0.5]];portConstraint=eastwest;labelBackgroundColor=none;fontColor=#000000;" vertex="1" parent="qgoOsgjJbzTstBWQKqg9-60">
          <mxGeometry y="135" width="140" height="26" as="geometry" />
        </mxCell>
        <mxCell id="qgoOsgjJbzTstBWQKqg9-72" style="edgeStyle=orthogonalEdgeStyle;rounded=0;orthogonalLoop=1;jettySize=auto;html=1;startArrow=none;startFill=0;endArrow=open;endFill=0;startSize=10;endSize=10;" edge="1" parent="1" source="qgoOsgjJbzTstBWQKqg9-66" target="qgoOsgjJbzTstBWQKqg9-60">
          <mxGeometry relative="1" as="geometry" />
        </mxCell>
        <mxCell id="qgoOsgjJbzTstBWQKqg9-66" value="PostsFiltrationDto" style="swimlane;fontStyle=1;align=center;verticalAlign=top;childLayout=stackLayout;horizontal=1;startSize=26;horizontalStack=0;resizeParent=1;resizeParentMax=0;resizeLast=0;collapsible=1;marginBottom=0;" vertex="1" parent="1">
          <mxGeometry x="40" y="830" width="210" height="86" as="geometry" />
        </mxCell>
        <mxCell id="qgoOsgjJbzTstBWQKqg9-67" value="+ type: PostsFiltrationType" style="text;strokeColor=none;fillColor=none;align=left;verticalAlign=top;spacingLeft=4;spacingRight=4;overflow=hidden;rotatable=0;points=[[0,0.5],[1,0.5]];portConstraint=eastwest;" vertex="1" parent="qgoOsgjJbzTstBWQKqg9-66">
          <mxGeometry y="26" width="210" height="26" as="geometry" />
        </mxCell>
        <mxCell id="qgoOsgjJbzTstBWQKqg9-68" value="+ direction: boolean " style="text;strokeColor=none;fillColor=none;align=left;verticalAlign=top;spacingLeft=4;spacingRight=4;overflow=hidden;rotatable=0;points=[[0,0.5],[1,0.5]];portConstraint=eastwest;" vertex="1" parent="qgoOsgjJbzTstBWQKqg9-66">
          <mxGeometry y="52" width="210" height="26" as="geometry" />
        </mxCell>
        <mxCell id="qgoOsgjJbzTstBWQKqg9-69" value="" style="line;strokeWidth=1;fillColor=none;align=left;verticalAlign=middle;spacingTop=-1;spacingLeft=3;spacingRight=3;rotatable=0;labelPosition=right;points=[];portConstraint=eastwest;strokeColor=inherit;" vertex="1" parent="qgoOsgjJbzTstBWQKqg9-66">
          <mxGeometry y="78" width="210" height="8" as="geometry" />
        </mxCell>
        <mxCell id="qgoOsgjJbzTstBWQKqg9-73" value="true - по возрастанию, false - убыванию" style="shape=note;whiteSpace=wrap;html=1;backgroundOutline=1;darkOpacity=0.05;" vertex="1" parent="1">
          <mxGeometry x="300" y="916" width="190" height="100" as="geometry" />
        </mxCell>
        <mxCell id="qgoOsgjJbzTstBWQKqg9-74" value="" style="endArrow=none;dashed=1;html=1;rounded=0;startSize=10;endSize=10;" edge="1" parent="1" source="qgoOsgjJbzTstBWQKqg9-68" target="qgoOsgjJbzTstBWQKqg9-73">
          <mxGeometry width="50" height="50" relative="1" as="geometry">
            <mxPoint x="280" y="1100" as="sourcePoint" />
            <mxPoint x="330" y="1050" as="targetPoint" />
          </mxGeometry>
        </mxCell>
        <mxCell id="qgoOsgjJbzTstBWQKqg9-201" style="edgeStyle=orthogonalEdgeStyle;rounded=0;orthogonalLoop=1;jettySize=auto;html=1;dashed=1;startArrow=none;startFill=0;endArrow=block;endFill=0;startSize=10;endSize=10;" edge="1" parent="1" source="qgoOsgjJbzTstBWQKqg9-88" target="qgoOsgjJbzTstBWQKqg9-191">
          <mxGeometry relative="1" as="geometry" />
        </mxCell>
        <mxCell id="qgoOsgjJbzTstBWQKqg9-88" value="Post" style="swimlane;fontStyle=1;align=center;verticalAlign=top;childLayout=stackLayout;horizontal=1;startSize=26;horizontalStack=0;resizeParent=1;resizeParentMax=0;resizeLast=0;collapsible=1;marginBottom=0;" vertex="1" parent="1">
          <mxGeometry x="842" y="-370" width="160" height="242" as="geometry" />
        </mxCell>
        <mxCell id="qgoOsgjJbzTstBWQKqg9-89" value="+ id: string" style="text;strokeColor=none;fillColor=none;align=left;verticalAlign=top;spacingLeft=4;spacingRight=4;overflow=hidden;rotatable=0;points=[[0,0.5],[1,0.5]];portConstraint=eastwest;" vertex="1" parent="qgoOsgjJbzTstBWQKqg9-88">
          <mxGeometry y="26" width="160" height="26" as="geometry" />
        </mxCell>
        <mxCell id="qgoOsgjJbzTstBWQKqg9-90" value="+ title: string" style="text;strokeColor=none;fillColor=none;align=left;verticalAlign=top;spacingLeft=4;spacingRight=4;overflow=hidden;rotatable=0;points=[[0,0.5],[1,0.5]];portConstraint=eastwest;" vertex="1" parent="qgoOsgjJbzTstBWQKqg9-88">
          <mxGeometry y="52" width="160" height="26" as="geometry" />
        </mxCell>
        <mxCell id="qgoOsgjJbzTstBWQKqg9-92" value="+ text: string" style="text;strokeColor=none;fillColor=none;align=left;verticalAlign=top;spacingLeft=4;spacingRight=4;overflow=hidden;rotatable=0;points=[[0,0.5],[1,0.5]];portConstraint=eastwest;" vertex="1" parent="qgoOsgjJbzTstBWQKqg9-88">
          <mxGeometry y="78" width="160" height="26" as="geometry" />
        </mxCell>
        <mxCell id="qgoOsgjJbzTstBWQKqg9-134" value="+ createdAt: Date" style="text;strokeColor=none;fillColor=none;align=left;verticalAlign=top;spacingLeft=4;spacingRight=4;overflow=hidden;rotatable=0;points=[[0,0.5],[1,0.5]];portConstraint=eastwest;" vertex="1" parent="qgoOsgjJbzTstBWQKqg9-88">
          <mxGeometry y="104" width="160" height="26" as="geometry" />
        </mxCell>
        <mxCell id="qgoOsgjJbzTstBWQKqg9-138" value="+ numberOfViews: number" style="text;strokeColor=none;fillColor=none;align=left;verticalAlign=top;spacingLeft=4;spacingRight=4;overflow=hidden;rotatable=0;points=[[0,0.5],[1,0.5]];portConstraint=eastwest;" vertex="1" parent="qgoOsgjJbzTstBWQKqg9-88">
          <mxGeometry y="130" width="160" height="26" as="geometry" />
        </mxCell>
        <mxCell id="qgoOsgjJbzTstBWQKqg9-137" value="+ numberOfDislikes: number" style="text;strokeColor=none;fillColor=none;align=left;verticalAlign=top;spacingLeft=4;spacingRight=4;overflow=hidden;rotatable=0;points=[[0,0.5],[1,0.5]];portConstraint=eastwest;" vertex="1" parent="qgoOsgjJbzTstBWQKqg9-88">
          <mxGeometry y="156" width="160" height="26" as="geometry" />
        </mxCell>
        <mxCell id="qgoOsgjJbzTstBWQKqg9-136" value="+ numberOfLikes: number" style="text;strokeColor=none;fillColor=none;align=left;verticalAlign=top;spacingLeft=4;spacingRight=4;overflow=hidden;rotatable=0;points=[[0,0.5],[1,0.5]];portConstraint=eastwest;" vertex="1" parent="qgoOsgjJbzTstBWQKqg9-88">
          <mxGeometry y="182" width="160" height="26" as="geometry" />
        </mxCell>
        <mxCell id="qgoOsgjJbzTstBWQKqg9-135" value="+ commentIds: string" style="text;strokeColor=none;fillColor=none;align=left;verticalAlign=top;spacingLeft=4;spacingRight=4;overflow=hidden;rotatable=0;points=[[0,0.5],[1,0.5]];portConstraint=eastwest;" vertex="1" parent="qgoOsgjJbzTstBWQKqg9-88">
          <mxGeometry y="208" width="160" height="26" as="geometry" />
        </mxCell>
        <mxCell id="qgoOsgjJbzTstBWQKqg9-91" value="" style="line;strokeWidth=1;fillColor=none;align=left;verticalAlign=middle;spacingTop=-1;spacingLeft=3;spacingRight=3;rotatable=0;labelPosition=right;points=[];portConstraint=eastwest;strokeColor=inherit;" vertex="1" parent="qgoOsgjJbzTstBWQKqg9-88">
          <mxGeometry y="234" width="160" height="8" as="geometry" />
        </mxCell>
        <mxCell id="qgoOsgjJbzTstBWQKqg9-99" style="edgeStyle=orthogonalEdgeStyle;rounded=0;orthogonalLoop=1;jettySize=auto;html=1;endArrow=none;endFill=0;startSize=10;endSize=10;startArrow=diamond;startFill=0;" edge="1" target="qgoOsgjJbzTstBWQKqg9-100" parent="1" source="qgoOsgjJbzTstBWQKqg9-23">
          <mxGeometry relative="1" as="geometry">
            <mxPoint x="750" y="713" as="sourcePoint" />
          </mxGeometry>
        </mxCell>
        <mxCell id="qgoOsgjJbzTstBWQKqg9-100" value="CommentDto" style="swimlane;fontStyle=1;align=center;verticalAlign=top;childLayout=stackLayout;horizontal=1;startSize=26;horizontalStack=0;resizeParent=1;resizeParentMax=0;resizeLast=0;collapsible=1;marginBottom=0;" vertex="1" parent="1">
          <mxGeometry x="875" y="657" width="160" height="112" as="geometry" />
        </mxCell>
        <mxCell id="qgoOsgjJbzTstBWQKqg9-101" value="+ text: string" style="text;strokeColor=none;fillColor=none;align=left;verticalAlign=top;spacingLeft=4;spacingRight=4;overflow=hidden;rotatable=0;points=[[0,0.5],[1,0.5]];portConstraint=eastwest;" vertex="1" parent="qgoOsgjJbzTstBWQKqg9-100">
          <mxGeometry y="26" width="160" height="26" as="geometry" />
        </mxCell>
        <mxCell id="qgoOsgjJbzTstBWQKqg9-102" value="+ authorName: string" style="text;strokeColor=none;fillColor=none;align=left;verticalAlign=top;spacingLeft=4;spacingRight=4;overflow=hidden;rotatable=0;points=[[0,0.5],[1,0.5]];portConstraint=eastwest;" vertex="1" parent="qgoOsgjJbzTstBWQKqg9-100">
          <mxGeometry y="52" width="160" height="26" as="geometry" />
        </mxCell>
        <mxCell id="qgoOsgjJbzTstBWQKqg9-103" value="+ createdAt: Date" style="text;strokeColor=none;fillColor=none;align=left;verticalAlign=top;spacingLeft=4;spacingRight=4;overflow=hidden;rotatable=0;points=[[0,0.5],[1,0.5]];portConstraint=eastwest;" vertex="1" parent="qgoOsgjJbzTstBWQKqg9-100">
          <mxGeometry y="78" width="160" height="26" as="geometry" />
        </mxCell>
        <mxCell id="qgoOsgjJbzTstBWQKqg9-104" value="" style="line;strokeWidth=1;fillColor=none;align=left;verticalAlign=middle;spacingTop=-1;spacingLeft=3;spacingRight=3;rotatable=0;labelPosition=right;points=[];portConstraint=eastwest;strokeColor=inherit;" vertex="1" parent="qgoOsgjJbzTstBWQKqg9-100">
          <mxGeometry y="104" width="160" height="8" as="geometry" />
        </mxCell>
        <mxCell id="qgoOsgjJbzTstBWQKqg9-114" style="edgeStyle=orthogonalEdgeStyle;rounded=0;orthogonalLoop=1;jettySize=auto;html=1;dashed=1;startArrow=none;startFill=0;endArrow=block;endFill=0;startSize=10;endSize=10;" edge="1" parent="1" source="qgoOsgjJbzTstBWQKqg9-110" target="qgoOsgjJbzTstBWQKqg9-46">
          <mxGeometry relative="1" as="geometry">
            <Array as="points">
              <mxPoint x="130" y="-23" />
            </Array>
          </mxGeometry>
        </mxCell>
        <mxCell id="qgoOsgjJbzTstBWQKqg9-110" value="PostsRepositroyDecorator" style="swimlane;fontStyle=1;align=center;verticalAlign=top;childLayout=stackLayout;horizontal=1;startSize=26;horizontalStack=0;resizeParent=1;resizeParentMax=0;resizeLast=0;collapsible=1;marginBottom=0;" vertex="1" parent="1">
          <mxGeometry x="-45" y="-230" width="300" height="112" as="geometry" />
        </mxCell>
        <mxCell id="qgoOsgjJbzTstBWQKqg9-111" value="- wrappee: IPostsRepository" style="text;strokeColor=none;fillColor=none;align=left;verticalAlign=top;spacingLeft=4;spacingRight=4;overflow=hidden;rotatable=0;points=[[0,0.5],[1,0.5]];portConstraint=eastwest;" vertex="1" parent="qgoOsgjJbzTstBWQKqg9-110">
          <mxGeometry y="26" width="300" height="26" as="geometry" />
        </mxCell>
        <mxCell id="qgoOsgjJbzTstBWQKqg9-112" value="" style="line;strokeWidth=1;fillColor=none;align=left;verticalAlign=middle;spacingTop=-1;spacingLeft=3;spacingRight=3;rotatable=0;labelPosition=right;points=[];portConstraint=eastwest;strokeColor=inherit;" vertex="1" parent="qgoOsgjJbzTstBWQKqg9-110">
          <mxGeometry y="52" width="300" height="8" as="geometry" />
        </mxCell>
        <mxCell id="qgoOsgjJbzTstBWQKqg9-113" value="+ constructor(postsRepository: IPostsRepository)" style="text;strokeColor=none;fillColor=none;align=left;verticalAlign=top;spacingLeft=4;spacingRight=4;overflow=hidden;rotatable=0;points=[[0,0.5],[1,0.5]];portConstraint=eastwest;" vertex="1" parent="qgoOsgjJbzTstBWQKqg9-110">
          <mxGeometry y="60" width="300" height="26" as="geometry" />
        </mxCell>
        <mxCell id="qgoOsgjJbzTstBWQKqg9-155" value="+ getPosts(skip:number, limit: number, filtration: PostFiltrationDto): Post[]" style="text;strokeColor=none;fillColor=none;align=left;verticalAlign=top;spacingLeft=4;spacingRight=4;overflow=hidden;rotatable=0;points=[[0,0.5],[1,0.5]];portConstraint=eastwest;" vertex="1" parent="qgoOsgjJbzTstBWQKqg9-110">
          <mxGeometry y="86" width="300" height="26" as="geometry" />
        </mxCell>
        <mxCell id="qgoOsgjJbzTstBWQKqg9-150" style="edgeStyle=orthogonalEdgeStyle;rounded=0;orthogonalLoop=1;jettySize=auto;html=1;startArrow=none;startFill=0;endArrow=block;endFill=0;startSize=10;endSize=10;" edge="1" parent="1" source="qgoOsgjJbzTstBWQKqg9-119" target="qgoOsgjJbzTstBWQKqg9-110">
          <mxGeometry relative="1" as="geometry" />
        </mxCell>
        <mxCell id="qgoOsgjJbzTstBWQKqg9-159" style="edgeStyle=orthogonalEdgeStyle;rounded=0;orthogonalLoop=1;jettySize=auto;html=1;startArrow=none;startFill=0;endArrow=open;endFill=0;startSize=10;endSize=10;" edge="1" parent="1" source="qgoOsgjJbzTstBWQKqg9-119" target="qgoOsgjJbzTstBWQKqg9-151">
          <mxGeometry relative="1" as="geometry" />
        </mxCell>
        <mxCell id="qgoOsgjJbzTstBWQKqg9-119" value="ByDatePostsSorter" style="swimlane;fontStyle=1;align=center;verticalAlign=top;childLayout=stackLayout;horizontal=1;startSize=26;horizontalStack=0;resizeParent=1;resizeParentMax=0;resizeLast=0;collapsible=1;marginBottom=0;" vertex="1" parent="1">
          <mxGeometry x="-70" y="-407" width="350" height="112" as="geometry" />
        </mxCell>
        <mxCell id="qgoOsgjJbzTstBWQKqg9-158" value="- strategy: ISortingStrategy" style="text;strokeColor=none;fillColor=none;align=left;verticalAlign=top;spacingLeft=4;spacingRight=4;overflow=hidden;rotatable=0;points=[[0,0.5],[1,0.5]];portConstraint=eastwest;" vertex="1" parent="qgoOsgjJbzTstBWQKqg9-119">
          <mxGeometry y="26" width="350" height="26" as="geometry" />
        </mxCell>
        <mxCell id="qgoOsgjJbzTstBWQKqg9-121" value="" style="line;strokeWidth=1;fillColor=none;align=left;verticalAlign=middle;spacingTop=-1;spacingLeft=3;spacingRight=3;rotatable=0;labelPosition=right;points=[];portConstraint=eastwest;strokeColor=inherit;" vertex="1" parent="qgoOsgjJbzTstBWQKqg9-119">
          <mxGeometry y="52" width="350" height="8" as="geometry" />
        </mxCell>
        <mxCell id="qgoOsgjJbzTstBWQKqg9-122" value="+ setStrategy(strategy: ISortingStrategy)" style="text;strokeColor=none;fillColor=none;align=left;verticalAlign=top;spacingLeft=4;spacingRight=4;overflow=hidden;rotatable=0;points=[[0,0.5],[1,0.5]];portConstraint=eastwest;" vertex="1" parent="qgoOsgjJbzTstBWQKqg9-119">
          <mxGeometry y="60" width="350" height="26" as="geometry" />
        </mxCell>
        <mxCell id="qgoOsgjJbzTstBWQKqg9-156" value="+ getPosts(skip:number, limit: number, filtration: PostFiltrationDto): Post[]" style="text;strokeColor=none;fillColor=none;align=left;verticalAlign=top;spacingLeft=4;spacingRight=4;overflow=hidden;rotatable=0;points=[[0,0.5],[1,0.5]];portConstraint=eastwest;" vertex="1" parent="qgoOsgjJbzTstBWQKqg9-119">
          <mxGeometry y="86" width="350" height="26" as="geometry" />
        </mxCell>
        <mxCell id="qgoOsgjJbzTstBWQKqg9-139" value="Класс условной для общения с бд. Возможно наследуется от какой то условной MongooseSchema или другой orm" style="shape=note;whiteSpace=wrap;html=1;backgroundOutline=1;darkOpacity=0.05;" vertex="1" parent="1">
          <mxGeometry x="827" y="-30" width="190" height="100" as="geometry" />
        </mxCell>
        <mxCell id="qgoOsgjJbzTstBWQKqg9-140" value="" style="endArrow=none;dashed=1;html=1;rounded=0;startSize=10;endSize=10;" edge="1" parent="1" source="qgoOsgjJbzTstBWQKqg9-88" target="qgoOsgjJbzTstBWQKqg9-139">
          <mxGeometry width="50" height="50" relative="1" as="geometry">
            <mxPoint x="820" y="-120" as="sourcePoint" />
            <mxPoint x="870" y="-170" as="targetPoint" />
          </mxGeometry>
        </mxCell>
        <mxCell id="qgoOsgjJbzTstBWQKqg9-151" value="&lt;&lt;interface&gt;&gt; &#xa;ISortingStrategy" style="swimlane;fontStyle=1;align=center;verticalAlign=top;childLayout=stackLayout;horizontal=1;startSize=40;horizontalStack=0;resizeParent=1;resizeParentMax=0;resizeLast=0;collapsible=1;marginBottom=0;" vertex="1" parent="1">
          <mxGeometry x="-510" y="-388" width="300" height="74" as="geometry" />
        </mxCell>
        <mxCell id="qgoOsgjJbzTstBWQKqg9-153" value="" style="line;strokeWidth=1;fillColor=none;align=left;verticalAlign=middle;spacingTop=-1;spacingLeft=3;spacingRight=3;rotatable=0;labelPosition=right;points=[];portConstraint=eastwest;strokeColor=inherit;" vertex="1" parent="qgoOsgjJbzTstBWQKqg9-151">
          <mxGeometry y="40" width="300" height="8" as="geometry" />
        </mxCell>
        <mxCell id="qgoOsgjJbzTstBWQKqg9-157" value="+ sortPosts(posts:Post[]): Post[]" style="text;strokeColor=none;fillColor=none;align=left;verticalAlign=top;spacingLeft=4;spacingRight=4;overflow=hidden;rotatable=0;points=[[0,0.5],[1,0.5]];portConstraint=eastwest;" vertex="1" parent="qgoOsgjJbzTstBWQKqg9-151">
          <mxGeometry y="48" width="300" height="26" as="geometry" />
        </mxCell>
        <mxCell id="qgoOsgjJbzTstBWQKqg9-170" style="edgeStyle=orthogonalEdgeStyle;rounded=0;orthogonalLoop=1;jettySize=auto;html=1;startArrow=none;startFill=0;endArrow=block;endFill=0;startSize=10;endSize=10;dashed=1;" edge="1" parent="1" source="qgoOsgjJbzTstBWQKqg9-167" target="qgoOsgjJbzTstBWQKqg9-151">
          <mxGeometry relative="1" as="geometry">
            <Array as="points">
              <mxPoint x="-200" y="-440" />
              <mxPoint x="-360" y="-440" />
            </Array>
          </mxGeometry>
        </mxCell>
        <mxCell id="qgoOsgjJbzTstBWQKqg9-167" value="ByDateSortingStrategy" style="swimlane;fontStyle=1;align=center;verticalAlign=top;childLayout=stackLayout;horizontal=1;startSize=30;horizontalStack=0;resizeParent=1;resizeParentMax=0;resizeLast=0;collapsible=1;marginBottom=0;" vertex="1" parent="1">
          <mxGeometry x="-350" y="-570" width="300" height="64" as="geometry" />
        </mxCell>
        <mxCell id="qgoOsgjJbzTstBWQKqg9-168" value="" style="line;strokeWidth=1;fillColor=none;align=left;verticalAlign=middle;spacingTop=-1;spacingLeft=3;spacingRight=3;rotatable=0;labelPosition=right;points=[];portConstraint=eastwest;strokeColor=inherit;" vertex="1" parent="qgoOsgjJbzTstBWQKqg9-167">
          <mxGeometry y="30" width="300" height="8" as="geometry" />
        </mxCell>
        <mxCell id="qgoOsgjJbzTstBWQKqg9-169" value="+ sortPosts(posts:Post[]): Post[]" style="text;strokeColor=none;fillColor=none;align=left;verticalAlign=top;spacingLeft=4;spacingRight=4;overflow=hidden;rotatable=0;points=[[0,0.5],[1,0.5]];portConstraint=eastwest;" vertex="1" parent="qgoOsgjJbzTstBWQKqg9-167">
          <mxGeometry y="38" width="300" height="26" as="geometry" />
        </mxCell>
        <mxCell id="qgoOsgjJbzTstBWQKqg9-174" style="edgeStyle=orthogonalEdgeStyle;rounded=0;orthogonalLoop=1;jettySize=auto;html=1;dashed=1;startArrow=none;startFill=0;endArrow=block;endFill=0;startSize=10;endSize=10;" edge="1" parent="1" source="qgoOsgjJbzTstBWQKqg9-171" target="qgoOsgjJbzTstBWQKqg9-151">
          <mxGeometry relative="1" as="geometry">
            <Array as="points">
              <mxPoint x="-520" y="-440" />
              <mxPoint x="-360" y="-440" />
            </Array>
          </mxGeometry>
        </mxCell>
        <mxCell id="qgoOsgjJbzTstBWQKqg9-171" value="ByViewsSortingStrategy" style="swimlane;fontStyle=1;align=center;verticalAlign=top;childLayout=stackLayout;horizontal=1;startSize=30;horizontalStack=0;resizeParent=1;resizeParentMax=0;resizeLast=0;collapsible=1;marginBottom=0;" vertex="1" parent="1">
          <mxGeometry x="-670" y="-570" width="300" height="64" as="geometry" />
        </mxCell>
        <mxCell id="qgoOsgjJbzTstBWQKqg9-172" value="" style="line;strokeWidth=1;fillColor=none;align=left;verticalAlign=middle;spacingTop=-1;spacingLeft=3;spacingRight=3;rotatable=0;labelPosition=right;points=[];portConstraint=eastwest;strokeColor=inherit;" vertex="1" parent="qgoOsgjJbzTstBWQKqg9-171">
          <mxGeometry y="30" width="300" height="8" as="geometry" />
        </mxCell>
        <mxCell id="qgoOsgjJbzTstBWQKqg9-173" value="+ sortPosts(posts:Post[]): Post[]" style="text;strokeColor=none;fillColor=none;align=left;verticalAlign=top;spacingLeft=4;spacingRight=4;overflow=hidden;rotatable=0;points=[[0,0.5],[1,0.5]];portConstraint=eastwest;" vertex="1" parent="qgoOsgjJbzTstBWQKqg9-171">
          <mxGeometry y="38" width="300" height="26" as="geometry" />
        </mxCell>
        <mxCell id="qgoOsgjJbzTstBWQKqg9-184" style="edgeStyle=orthogonalEdgeStyle;rounded=0;orthogonalLoop=1;jettySize=auto;html=1;dashed=1;startArrow=none;startFill=0;endArrow=block;endFill=0;startSize=10;endSize=10;" edge="1" parent="1" source="qgoOsgjJbzTstBWQKqg9-175" target="qgoOsgjJbzTstBWQKqg9-151">
          <mxGeometry relative="1" as="geometry">
            <Array as="points">
              <mxPoint x="-840" y="-440" />
              <mxPoint x="-360" y="-440" />
            </Array>
          </mxGeometry>
        </mxCell>
        <mxCell id="qgoOsgjJbzTstBWQKqg9-175" value="ByTalkingSortingStrategy" style="swimlane;fontStyle=1;align=center;verticalAlign=top;childLayout=stackLayout;horizontal=1;startSize=30;horizontalStack=0;resizeParent=1;resizeParentMax=0;resizeLast=0;collapsible=1;marginBottom=0;" vertex="1" parent="1">
          <mxGeometry x="-990" y="-570" width="300" height="64" as="geometry" />
        </mxCell>
        <mxCell id="qgoOsgjJbzTstBWQKqg9-176" value="" style="line;strokeWidth=1;fillColor=none;align=left;verticalAlign=middle;spacingTop=-1;spacingLeft=3;spacingRight=3;rotatable=0;labelPosition=right;points=[];portConstraint=eastwest;strokeColor=inherit;" vertex="1" parent="qgoOsgjJbzTstBWQKqg9-175">
          <mxGeometry y="30" width="300" height="8" as="geometry" />
        </mxCell>
        <mxCell id="qgoOsgjJbzTstBWQKqg9-177" value="+ sortPosts(posts:Post[]): Post[]" style="text;strokeColor=none;fillColor=none;align=left;verticalAlign=top;spacingLeft=4;spacingRight=4;overflow=hidden;rotatable=0;points=[[0,0.5],[1,0.5]];portConstraint=eastwest;" vertex="1" parent="qgoOsgjJbzTstBWQKqg9-175">
          <mxGeometry y="38" width="300" height="26" as="geometry" />
        </mxCell>
        <mxCell id="qgoOsgjJbzTstBWQKqg9-186" style="edgeStyle=orthogonalEdgeStyle;rounded=0;orthogonalLoop=1;jettySize=auto;html=1;dashed=1;startArrow=none;startFill=0;endArrow=block;endFill=0;startSize=10;endSize=10;" edge="1" parent="1" source="qgoOsgjJbzTstBWQKqg9-178" target="qgoOsgjJbzTstBWQKqg9-151">
          <mxGeometry relative="1" as="geometry">
            <Array as="points">
              <mxPoint x="-1480" y="-440" />
              <mxPoint x="-360" y="-440" />
            </Array>
          </mxGeometry>
        </mxCell>
        <mxCell id="qgoOsgjJbzTstBWQKqg9-178" value="ByPopularitySortingStrategy" style="swimlane;fontStyle=1;align=center;verticalAlign=top;childLayout=stackLayout;horizontal=1;startSize=30;horizontalStack=0;resizeParent=1;resizeParentMax=0;resizeLast=0;collapsible=1;marginBottom=0;" vertex="1" parent="1">
          <mxGeometry x="-1630" y="-570" width="300" height="64" as="geometry" />
        </mxCell>
        <mxCell id="qgoOsgjJbzTstBWQKqg9-179" value="" style="line;strokeWidth=1;fillColor=none;align=left;verticalAlign=middle;spacingTop=-1;spacingLeft=3;spacingRight=3;rotatable=0;labelPosition=right;points=[];portConstraint=eastwest;strokeColor=inherit;" vertex="1" parent="qgoOsgjJbzTstBWQKqg9-178">
          <mxGeometry y="30" width="300" height="8" as="geometry" />
        </mxCell>
        <mxCell id="qgoOsgjJbzTstBWQKqg9-180" value="+ sortPosts(posts:Post[]): Post[]" style="text;strokeColor=none;fillColor=none;align=left;verticalAlign=top;spacingLeft=4;spacingRight=4;overflow=hidden;rotatable=0;points=[[0,0.5],[1,0.5]];portConstraint=eastwest;" vertex="1" parent="qgoOsgjJbzTstBWQKqg9-178">
          <mxGeometry y="38" width="300" height="26" as="geometry" />
        </mxCell>
        <mxCell id="qgoOsgjJbzTstBWQKqg9-185" style="edgeStyle=orthogonalEdgeStyle;rounded=0;orthogonalLoop=1;jettySize=auto;html=1;dashed=1;startArrow=none;startFill=0;endArrow=block;endFill=0;startSize=10;endSize=10;" edge="1" parent="1" source="qgoOsgjJbzTstBWQKqg9-181" target="qgoOsgjJbzTstBWQKqg9-151">
          <mxGeometry relative="1" as="geometry">
            <Array as="points">
              <mxPoint x="-1160" y="-440" />
              <mxPoint x="-360" y="-440" />
            </Array>
          </mxGeometry>
        </mxCell>
        <mxCell id="qgoOsgjJbzTstBWQKqg9-181" value="ByRatingSortingStrategy" style="swimlane;fontStyle=1;align=center;verticalAlign=top;childLayout=stackLayout;horizontal=1;startSize=30;horizontalStack=0;resizeParent=1;resizeParentMax=0;resizeLast=0;collapsible=1;marginBottom=0;" vertex="1" parent="1">
          <mxGeometry x="-1310" y="-570" width="300" height="64" as="geometry" />
        </mxCell>
        <mxCell id="qgoOsgjJbzTstBWQKqg9-182" value="" style="line;strokeWidth=1;fillColor=none;align=left;verticalAlign=middle;spacingTop=-1;spacingLeft=3;spacingRight=3;rotatable=0;labelPosition=right;points=[];portConstraint=eastwest;strokeColor=inherit;" vertex="1" parent="qgoOsgjJbzTstBWQKqg9-181">
          <mxGeometry y="30" width="300" height="8" as="geometry" />
        </mxCell>
        <mxCell id="qgoOsgjJbzTstBWQKqg9-183" value="+ sortPosts(posts:Post[]): Post[]" style="text;strokeColor=none;fillColor=none;align=left;verticalAlign=top;spacingLeft=4;spacingRight=4;overflow=hidden;rotatable=0;points=[[0,0.5],[1,0.5]];portConstraint=eastwest;" vertex="1" parent="qgoOsgjJbzTstBWQKqg9-181">
          <mxGeometry y="38" width="300" height="26" as="geometry" />
        </mxCell>
        <mxCell id="qgoOsgjJbzTstBWQKqg9-189" value="Я забыл как это показать, но сюда приходит запрос от фронта&amp;nbsp;" style="shape=note;whiteSpace=wrap;html=1;backgroundOutline=1;darkOpacity=0.05;" vertex="1" parent="1">
          <mxGeometry x="-235" y="470" width="190" height="100" as="geometry" />
        </mxCell>
        <mxCell id="qgoOsgjJbzTstBWQKqg9-190" value="" style="endArrow=none;dashed=1;html=1;rounded=0;startSize=10;endSize=10;" edge="1" parent="1" source="qgoOsgjJbzTstBWQKqg9-189" target="qgoOsgjJbzTstBWQKqg9-1">
          <mxGeometry width="50" height="50" relative="1" as="geometry">
            <mxPoint x="60" y="560" as="sourcePoint" />
            <mxPoint x="110" y="510" as="targetPoint" />
          </mxGeometry>
        </mxCell>
        <mxCell id="qgoOsgjJbzTstBWQKqg9-191" value="Comment" style="swimlane;fontStyle=1;align=center;verticalAlign=top;childLayout=stackLayout;horizontal=1;startSize=26;horizontalStack=0;resizeParent=1;resizeParentMax=0;resizeLast=0;collapsible=1;marginBottom=0;" vertex="1" parent="1">
          <mxGeometry x="842" y="-700" width="160" height="112" as="geometry" />
        </mxCell>
        <mxCell id="qgoOsgjJbzTstBWQKqg9-192" value="+ id: string" style="text;strokeColor=none;fillColor=none;align=left;verticalAlign=top;spacingLeft=4;spacingRight=4;overflow=hidden;rotatable=0;points=[[0,0.5],[1,0.5]];portConstraint=eastwest;" vertex="1" parent="qgoOsgjJbzTstBWQKqg9-191">
          <mxGeometry y="26" width="160" height="26" as="geometry" />
        </mxCell>
        <mxCell id="qgoOsgjJbzTstBWQKqg9-193" value="+ userId: string" style="text;strokeColor=none;fillColor=none;align=left;verticalAlign=top;spacingLeft=4;spacingRight=4;overflow=hidden;rotatable=0;points=[[0,0.5],[1,0.5]];portConstraint=eastwest;" vertex="1" parent="qgoOsgjJbzTstBWQKqg9-191">
          <mxGeometry y="52" width="160" height="26" as="geometry" />
        </mxCell>
        <mxCell id="qgoOsgjJbzTstBWQKqg9-194" value="+ text: string" style="text;strokeColor=none;fillColor=none;align=left;verticalAlign=top;spacingLeft=4;spacingRight=4;overflow=hidden;rotatable=0;points=[[0,0.5],[1,0.5]];portConstraint=eastwest;" vertex="1" parent="qgoOsgjJbzTstBWQKqg9-191">
          <mxGeometry y="78" width="160" height="26" as="geometry" />
        </mxCell>
        <mxCell id="qgoOsgjJbzTstBWQKqg9-200" value="" style="line;strokeWidth=1;fillColor=none;align=left;verticalAlign=middle;spacingTop=-1;spacingLeft=3;spacingRight=3;rotatable=0;labelPosition=right;points=[];portConstraint=eastwest;strokeColor=inherit;" vertex="1" parent="qgoOsgjJbzTstBWQKqg9-191">
          <mxGeometry y="104" width="160" height="8" as="geometry" />
        </mxCell>
      </root>
    </mxGraphModel>
  </diagram>
</mxfile>
